<svg xmlns="http://www.w3.org/2000/svg" xmlns:ooo="http://xml.openoffice.org/svg/export" xmlns:svg="http://www.w3.org/2000/svg" id="svg2" width="340" height="340" clip-path="url(#presentation_clip_path)" style="fill-rule:evenodd;stroke-width:28.22200012;stroke-linejoin:round" preserveAspectRatio="xMidYMid" version="1.2" viewBox="0 0 9595.556 9595.556" xml:space="preserve"><metadata id="metadata206"/><defs id="defs4" class="ClipPathGroup"><clipPath id="presentation_clip_path" clipPathUnits="userSpaceOnUse"><rect id="rect7" width="21590" height="27940" x="0" y="0"/></clipPath></defs><defs id="defs13" class="EmbeddedBulletChars"><g id="bullet-char-template(57356)" transform="scale(4.8828125e-4,-4.8828125e-4)"><path id="path16" d="M 580,1141 1163,571 580,0 -4,571 580,1141 z"/></g><g id="bullet-char-template(57354)" transform="scale(4.8828125e-4,-4.8828125e-4)"><path id="path19" d="m 8,1128 1129,0 L 1137,0 8,0 8,1128 z"/></g><g id="bullet-char-template(10146)" transform="scale(4.8828125e-4,-4.8828125e-4)"><path id="path22" d="M 174,0 602,739 174,1481 1456,739 174,0 z m 1184,739 -1049,607 350,-607 699,0 z"/></g><g id="bullet-char-template(10132)" transform="scale(4.8828125e-4,-4.8828125e-4)"><path id="path25" d="M 2015,739 1276,0 717,0 l 543,543 -1086,0 0,393 1086,0 -543,545 557,0 741,-742 z"/></g><g id="bullet-char-template(10007)" transform="scale(4.8828125e-4,-4.8828125e-4)"><path id="path28" d="m 0,-2 c -7,16 -16,29 -25,39 l 381,530 c -94,256 -141,385 -141,387 0,25 13,38 40,38 9,0 21,-2 34,-5 21,4 42,12 65,25 l 27,-13 111,-251 280,301 64,-25 24,25 c 21,-10 41,-24 62,-43 C 886,937 835,863 770,784 769,783 710,716 594,584 L 774,223 c 0,-27 -21,-55 -63,-84 l 16,-20 C 717,90 699,76 672,76 641,76 570,178 457,381 L 164,-76 c -22,-34 -53,-51 -92,-51 -42,0 -63,17 -64,51 -7,9 -10,24 -10,44 0,9 1,19 2,30 z"/></g><g id="bullet-char-template(10004)" transform="scale(4.8828125e-4,-4.8828125e-4)"><path id="path31" d="M 285,-33 C 182,-33 111,30 74,156 52,228 41,333 41,471 c 0,78 14,145 41,201 34,71 87,106 158,106 53,0 88,-31 106,-94 l 23,-176 c 8,-64 28,-97 59,-98 l 735,706 c 11,11 33,17 66,17 42,0 63,-15 63,-46 l 0,-122 c 0,-36 -10,-64 -30,-84 L 442,47 C 390,-6 338,-33 285,-33 z"/></g><g id="bullet-char-template(9679)" transform="scale(4.8828125e-4,-4.8828125e-4)"><path id="path34" d="M 813,0 C 632,0 489,54 383,161 276,268 223,411 223,592 c 0,181 53,324 160,431 106,107 249,161 430,161 179,0 323,-54 432,-161 108,-107 162,-251 162,-431 0,-180 -54,-324 -162,-431 C 1136,54 992,0 813,0 z"/></g><g id="bullet-char-template(8226)" transform="scale(4.8828125e-4,-4.8828125e-4)"><path id="path37" d="m 346,457 c -73,0 -137,26 -191,78 -54,51 -81,114 -81,188 0,73 27,136 81,188 54,52 118,78 191,78 73,0 134,-26 185,-79 51,-51 77,-114 77,-187 0,-75 -25,-137 -76,-188 -50,-52 -112,-78 -186,-78 z"/></g><g id="bullet-char-template(8211)" transform="scale(4.8828125e-4,-4.8828125e-4)"><path id="path40" d="m -4,459 1139,0 0,147 -1139,0 0,-147 z"/></g></defs><g id="g3057" transform="matrix(0.70710678,0.70710678,-0.70710678,0.70710678,4900.0431,-1988.64)"><g id="g120" class="com.sun.star.drawing.ClosedBezierShape" transform="translate(-6225.4776,-8529.4448)"><g id="id11"><path style="fill:#1356a0;stroke:none" id="path123" d="m 10952,8800 c -800,0 -1100,200 -1303,400 1600,1373 4903,2700 4903,4800 500,-2700 -2800,-4600 -3600,-5200 z"/><path style="fill:none;stroke:#fff;stroke-width:50" id="path125" d="m 10952,8800 c -800,0 -1100,200 -1303,400 1600,1373 4903,2700 4903,4800 500,-2700 -2800,-4600 -3600,-5200 z"/></g></g><g id="g127" class="com.sun.star.drawing.ClosedBezierShape" transform="translate(-6225.4776,-8529.4448)"><g id="id12"><path style="fill:#1356a0;stroke:none" id="path130" d="m 11200,18100 c 800,0 1100,-200 1303,-400 -1600,-1373 -4903,-2700 -4903,-4800 -500,2700 2800,4600 3600,5200 z"/><path style="fill:none;stroke:#fff;stroke-width:50" id="path132" d="m 11200,18100 c 800,0 1100,-200 1303,-400 -1600,-1373 -4903,-2700 -4903,-4800 -500,2700 2800,4600 3600,5200 z"/></g></g><g id="g134" class="com.sun.star.drawing.PolyPolygonShape" transform="translate(-6225.4776,-8529.4448)"><g id="id13"><path style="fill:#f3b757;stroke:none" id="path137" d="m 9000,11100 2000,0 200,92 -200,93 -200,92 200,92 -200,93 200,92 -2500,0 500,-554 z"/><path style="fill:none;stroke:#fff" id="path139" d="m 9000,11100 2000,0 200,92 -200,93 -200,92 200,92 -200,93 200,92 -2500,0 500,-554 z"/></g></g><g id="g141" class="com.sun.star.drawing.PolyPolygonShape" transform="translate(-6225.4776,-8529.4448)"><g id="id14"><path style="fill:#a3cf71;stroke:none" id="path144" d="m 8100,12446 2900,0 200,139 -200,138 -200,139 200,138 -3200,0 300,-554 z"/><path style="fill:none;stroke:#fff" id="path146" d="m 8100,12446 2900,0 200,139 -200,138 -200,139 200,138 -3200,0 300,-554 z"/></g></g><g id="g148" class="com.sun.star.drawing.PolyPolygonShape" transform="translate(-6225.4776,-8529.4448)"><g id="id15"><path style="fill:#0888b2;stroke:none" id="path151" d="m 14100,12446 -2900,0 200,139 -200,138 -200,139 200,138 3200,0 -300,-554 z"/><path style="fill:none;stroke:#fff" id="path153" d="m 14100,12446 -2900,0 200,139 -200,138 -200,139 200,138 3200,0 -300,-554 z"/></g></g><g id="g155" class="com.sun.star.drawing.PolyPolygonShape" transform="translate(-6225.4776,-8529.4448)"><g id="id16"><path style="fill:#c13550;stroke:none" id="path158" d="m 13000,11100 -1800,0 200,92 -200,93 -200,92 200,92 -200,93 200,92 2400,0 -600,-554 z"/><path style="fill:none;stroke:#fff" id="path160" d="m 13000,11100 -1800,0 200,92 -200,93 -200,92 200,92 -200,93 200,92 2400,0 -600,-554 z"/></g></g><g id="g162" class="com.sun.star.drawing.PolyPolygonShape" transform="translate(-6225.4776,-8529.4448)"><g id="id17"><path style="fill:#f3b757;stroke:none" id="path165" d="m 13000,15700 -1800,0 -200,-92 200,-93 200,-92 -200,-92 200,-93 -200,-92 2500,-46 -700,600 z"/><path style="fill:none;stroke:#fff" id="path167" d="m 13000,15700 -1800,0 -200,-92 200,-93 200,-92 -200,-92 200,-93 -200,-92 2500,-46 -700,600 z"/></g></g><g id="g169" class="com.sun.star.drawing.PolyPolygonShape" transform="translate(-6225.4776,-8529.4448)"><g id="id18"><path style="fill:#a3cf71;stroke:none" id="path172" d="m 14200,14454 -3000,0 -200,-139 200,-138 200,-139 -200,-138 3300,0 -300,554 z"/><path style="fill:none;stroke:#fff" id="path174" d="m 14200,14454 -3000,0 -200,-139 200,-138 200,-139 -200,-138 3300,0 -300,554 z"/></g></g><g id="g176" class="com.sun.star.drawing.ClosedBezierShape" transform="translate(-6225.4776,-8529.4448)"><g id="id19"><path style="fill:#0888b2;stroke:none" id="path179" d="m 8100,14454 2900,0 -200,-139 200,-138 200,-139 -200,-138 -3200,0 c 67,185 233,369 300,554 z"/><path style="fill:none;stroke:#fff" id="path181" d="m 8100,14454 2900,0 -200,-139 200,-138 200,-139 -200,-138 -3200,0 c 67,185 233,369 300,554 z"/></g></g><g id="g183" class="com.sun.star.drawing.PolyPolygonShape" transform="translate(-6225.4776,-8529.4448)"><g id="id20"><path style="fill:#c13550;stroke:none" id="path186" d="m 9000,15700 2000,0 -200,-92 200,-93 200,-92 -200,-92 200,-93 -200,-92 -2600,0 600,554 z"/><path style="fill:none;stroke:#fff" id="path188" d="m 9000,15700 2000,0 -200,-92 200,-93 200,-92 -200,-92 200,-93 -200,-92 -2600,0 600,554 z"/></g></g><g id="g190" class="com.sun.star.drawing.ClosedBezierShape" transform="translate(-6225.4776,-8529.4448)"><g id="id21"><path style="fill:#2c2f72;stroke:none" id="path193" d="m 11200,8800 c 800,0 1100,200 1303,400 -1600,1373 -4903,2700 -4903,4800 -500,-2700 2800,-4600 3600,-5200 z"/><path style="fill:none;stroke:#fff;stroke-width:50" id="path195" d="m 11200,8800 c 800,0 1100,200 1303,400 -1600,1373 -4903,2700 -4903,4800 -500,-2700 2800,-4600 3600,-5200 z"/></g></g><g id="g197" class="com.sun.star.drawing.ClosedBezierShape" transform="translate(-6225.4776,-8529.4448)"><g id="id22"><path style="fill:#2c2f72;stroke:none" id="path200" d="m 10952,18100 c -800,0 -1100,-200 -1303,-400 1600,-1373 4903,-2700 4903,-4800 500,2700 -2800,4600 -3600,5200 z"/><path style="fill:none;stroke:#fff;stroke-width:50" id="path202" d="m 10952,18100 c -800,0 -1100,-200 -1303,-400 1600,-1373 4903,-2700 4903,-4800 500,2700 -2800,4600 -3600,5200 z"/></g></g></g></svg>