<svg xmlns="http://www.w3.org/2000/svg" width="174" height="1100" version="1.1" viewBox="-8 -58 174 1100"><defs><style type="text/css">.terminal_rect{fill:#ceffce;stroke:#000;stroke-width:2}.terminal_text{fill:#000;font-family:Verdana,Sans-serif;text-anchor:middle;font-size:14px}.path{fill:none;stroke:#000;stroke-width:2}.rule_text{fill:#000;font-family:Verdana,Sans-serif;font-weight:700;font-size:14px}.rule_path_edge{fill:none;stroke:#000;stroke-width:3}</style></defs><text x="0" y="-36" class="rule_text">aa1:</text><rect width="26" height="28" x="66" y="-14" class="terminal_rect" rx="28"/><text x="79" y="4" class="terminal_text">A</text><rect width="26" height="28" x="66" y="30" class="terminal_rect" rx="28"/><text x="79" y="48" class="terminal_text">C</text><rect width="26" height="28" x="66" y="74" class="terminal_rect" rx="28"/><text x="79" y="92" class="terminal_text">D</text><rect width="26" height="28" x="66" y="118" class="terminal_rect" rx="28"/><text x="79" y="136" class="terminal_text">E</text><rect width="26" height="28" x="66" y="162" class="terminal_rect" rx="28"/><text x="79" y="180" class="terminal_text">F</text><rect width="26" height="28" x="66" y="206" class="terminal_rect" rx="28"/><text x="79" y="224" class="terminal_text">G</text><rect width="26" height="28" x="66" y="250" class="terminal_rect" rx="28"/><text x="79" y="268" class="terminal_text">H</text><rect width="26" height="28" x="66" y="294" class="terminal_rect" rx="28"/><text x="79" y="312" class="terminal_text">I</text><rect width="26" height="28" x="66" y="338" class="terminal_rect" rx="28"/><text x="79" y="356" class="terminal_text">K</text><rect width="26" height="28" x="66" y="382" class="terminal_rect" rx="28"/><text x="79" y="400" class="terminal_text">L</text><rect width="26" height="28" x="66" y="426" class="terminal_rect" rx="28"/><text x="79" y="444" class="terminal_text">M</text><rect width="26" height="28" x="66" y="470" class="terminal_rect" rx="28"/><text x="79" y="488" class="terminal_text">N</text><rect width="26" height="28" x="66" y="514" class="terminal_rect" rx="28"/><text x="79" y="532" class="terminal_text">P</text><rect width="26" height="28" x="66" y="558" class="terminal_rect" rx="28"/><text x="79" y="576" class="terminal_text">Q</text><rect width="26" height="28" x="66" y="602" class="terminal_rect" rx="28"/><text x="79" y="620" class="terminal_text">R</text><rect width="26" height="28" x="66" y="646" class="terminal_rect" rx="28"/><text x="79" y="664" class="terminal_text">S</text><rect width="26" height="28" x="66" y="690" class="terminal_rect" rx="28"/><text x="79" y="708" class="terminal_text">T</text><rect width="26" height="28" x="66" y="734" class="terminal_rect" rx="28"/><text x="79" y="752" class="terminal_text">V</text><rect width="26" height="28" x="66" y="778" class="terminal_rect" rx="28"/><text x="79" y="796" class="terminal_text">W</text><rect width="26" height="28" x="66" y="822" class="terminal_rect" rx="28"/><text x="79" y="840" class="terminal_text">Y</text><rect width="26" height="28" x="66" y="866" class="terminal_rect" rx="28"/><text x="79" y="884" class="terminal_text">B</text><rect width="26" height="28" x="66" y="910" class="terminal_rect" rx="28"/><text x="79" y="928" class="terminal_text">Z</text><rect width="26" height="28" x="66" y="954" class="terminal_rect" rx="28"/><text x="79" y="972" class="terminal_text">X</text><rect width="26" height="28" x="66" y="998" class="terminal_rect" rx="28"/><text x="79" y="1016" class="terminal_text">U</text><path d="M30 0 L66 0 M30 0 Q42 0 42 12 M128 0 L92 0 M128 0 Q116 0 116 12" class="path"/><path d="M54 44 L66 44 M54 44 Q42 44 42 32 L42 12 M104 44 L92 44 M104 44 Q116 44 116 32 L116 12" class="path"/><path d="M54 88 L66 88 M54 88 Q42 88 42 76 L42 32 M104 88 L92 88 M104 88 Q116 88 116 76 L116 32" class="path"/><path d="M54 132 L66 132 M54 132 Q42 132 42 120 L42 76 M104 132 L92 132 M104 132 Q116 132 116 120 L116 76" class="path"/><path d="M54 176 L66 176 M54 176 Q42 176 42 164 L42 120 M104 176 L92 176 M104 176 Q116 176 116 164 L116 120" class="path"/><path d="M54 220 L66 220 M54 220 Q42 220 42 208 L42 164 M104 220 L92 220 M104 220 Q116 220 116 208 L116 164" class="path"/><path d="M54 264 L66 264 M54 264 Q42 264 42 252 L42 208 M104 264 L92 264 M104 264 Q116 264 116 252 L116 208" class="path"/><path d="M54 308 L66 308 M54 308 Q42 308 42 296 L42 252 M104 308 L92 308 M104 308 Q116 308 116 296 L116 252" class="path"/><path d="M54 352 L66 352 M54 352 Q42 352 42 340 L42 296 M104 352 L92 352 M104 352 Q116 352 116 340 L116 296" class="path"/><path d="M54 396 L66 396 M54 396 Q42 396 42 384 L42 340 M104 396 L92 396 M104 396 Q116 396 116 384 L116 340" class="path"/><path d="M54 440 L66 440 M54 440 Q42 440 42 428 L42 384 M104 440 L92 440 M104 440 Q116 440 116 428 L116 384" class="path"/><path d="M54 484 L66 484 M54 484 Q42 484 42 472 L42 428 M104 484 L92 484 M104 484 Q116 484 116 472 L116 428" class="path"/><path d="M54 528 L66 528 M54 528 Q42 528 42 516 L42 472 M104 528 L92 528 M104 528 Q116 528 116 516 L116 472" class="path"/><path d="M54 572 L66 572 M54 572 Q42 572 42 560 L42 516 M104 572 L92 572 M104 572 Q116 572 116 560 L116 516" class="path"/><path d="M54 616 L66 616 M54 616 Q42 616 42 604 L42 560 M104 616 L92 616 M104 616 Q116 616 116 604 L116 560" class="path"/><path d="M54 660 L66 660 M54 660 Q42 660 42 648 L42 604 M104 660 L92 660 M104 660 Q116 660 116 648 L116 604" class="path"/><path d="M54 704 L66 704 M54 704 Q42 704 42 692 L42 648 M104 704 L92 704 M104 704 Q116 704 116 692 L116 648" class="path"/><path d="M54 748 L66 748 M54 748 Q42 748 42 736 L42 692 M104 748 L92 748 M104 748 Q116 748 116 736 L116 692" class="path"/><path d="M54 792 L66 792 M54 792 Q42 792 42 780 L42 736 M104 792 L92 792 M104 792 Q116 792 116 780 L116 736" class="path"/><path d="M54 836 L66 836 M54 836 Q42 836 42 824 L42 780 M104 836 L92 836 M104 836 Q116 836 116 824 L116 780" class="path"/><path d="M54 880 L66 880 M54 880 Q42 880 42 868 L42 824 M104 880 L92 880 M104 880 Q116 880 116 868 L116 824" class="path"/><path d="M54 924 L66 924 M54 924 Q42 924 42 912 L42 868 M104 924 L92 924 M104 924 Q116 924 116 912 L116 868" class="path"/><path d="M54 968 L66 968 M54 968 Q42 968 42 956 L42 912 M104 968 L92 968 M104 968 Q116 968 116 956 L116 912" class="path"/><path d="M54 1012 L66 1012 M54 1012 Q42 1012 42 1000 L42 956 M104 1012 L92 1012 M104 1012 Q116 1012 116 1000 L116 956" class="path"/><path d="M0 0 L30 0 M158 0 L128 0" class="path"/><path d="M0 -6 L0 6 M158 -6 L158 6" class="rule_path_edge"/></svg>