<svg xmlns="http://www.w3.org/2000/svg" width="234" height="132" version="1.1" viewBox="-8 -58 234 132"><defs><style type="text/css">.symbol_rect{fill:#ceffce;stroke:#000;stroke-width:2}.symbol_text{fill:#000;font-family:Verdana,Sans-serif;font-weight:700;font-style:italic;text-anchor:middle;font-size:14px}.path{fill:none;stroke:#000;stroke-width:2}.rule_text{fill:#000;font-family:Verdana,Sans-serif;font-weight:700;font-size:14px}.rule_path_edge{fill:none;stroke:#000;stroke-width:3}</style></defs><text x="0" y="-36" class="rule_text">aa13_seq:</text><rect width="86" height="28" x="66" y="-14" class="symbol_rect" rx="1"/><text x="109" y="4" class="symbol_text">aa3_seq</text><rect width="86" height="28" x="66" y="30" class="symbol_rect" rx="1"/><text x="109" y="48" class="symbol_text">aa1_seq</text><path d="M30 0 L66 0 M30 0 Q42 0 42 12 M188 0 L152 0 M188 0 Q176 0 176 12" class="path"/><path d="M54 44 L66 44 M54 44 Q42 44 42 32 L42 12 M164 44 L152 44 M164 44 Q176 44 176 32 L176 12" class="path"/><path d="M0 0 L30 0 M218 0 L188 0" class="path"/><path d="M0 -6 L0 6 M218 -6 L218 6" class="rule_path_edge"/></svg>