<svg xmlns="http://www.w3.org/2000/svg" width="384" height="176" version="1.1" viewBox="-8 -58 384 176"><defs><style type="text/css">.symbol_rect,.terminal_rect{fill:#ceffce;stroke:#000;stroke-width:2}.symbol_text{fill:#000;font-family:Verdana,Sans-serif;font-weight:700;font-style:italic;text-anchor:middle;font-size:14px}.path{fill:none;stroke:#000;stroke-width:2}.rule_text{fill:#000;font-family:Verdana,Sans-serif;font-weight:700;font-size:14px}.rule_path_edge{fill:none;stroke:#000;stroke-width:3}</style></defs><text x="0" y="-36" class="rule_text">aa13_ext:</text><rect width="76" height="28" x="66" y="-14" class="symbol_rect" rx="1"/><text x="104" y="4" class="symbol_text">term13</text><rect width="136" height="28" x="166" y="-14" class="symbol_rect" rx="1"/><text x="234" y="4" class="symbol_text">fsext_offset</text><path d="M142 0 L166 0" class="path"/><rect width="56" height="28" x="102" y="30" class="symbol_rect" rx="1"/><text x="130" y="48" class="symbol_text">aa13</text><rect width="16" height="28" x="102" y="74" class="terminal_rect" rx="28"/><path d="M66 44 L102 44 M66 44 Q78 44 78 56 M194 44 L158 44 M194 44 Q182 44 182 56" class="path"/><path d="M90 88 L102 88 M90 88 Q78 88 78 76 L78 56 M170 88 L118 88 M170 88 Q182 88 182 76 L182 56" class="path"/><rect width="56" height="28" x="218" y="30" class="symbol_rect" rx="1"/><text x="246" y="48" class="symbol_text">nnum</text><path d="M194 44 L218 44" class="path"/><path d="M30 0 L66 0 M30 0 Q42 0 42 12 M338 0 L302 0 M338 0 Q326 0 326 12" class="path"/><path d="M54 44 L66 44 M54 44 Q42 44 42 32 L42 12 M314 44 L274 44 M314 44 Q326 44 326 32 L326 12" class="path"/><path d="M0 0 L30 0 M368 0 L338 0" class="path"/><path d="M0 -6 L0 6 M368 -6 L368 6" class="rule_path_edge"/></svg>