<svg xmlns="http://www.w3.org/2000/svg" width="404" height="204" version="1.1" viewBox="-8 -58 404 204"><defs><style type="text/css">.symbol_rect,.terminal_rect{fill:#ceffce;stroke:#000;stroke-width:2}.symbol_text{fill:#000;font-family:Verdana,Sans-serif;font-weight:700;font-style:italic;text-anchor:middle;font-size:14px}.path{fill:none;stroke:#000;stroke-width:2}.rule_text{fill:#000;font-family:Verdana,Sans-serif;font-weight:700;font-size:14px}.rule_path_edge{fill:none;stroke:#000;stroke-width:3}</style></defs><text x="0" y="-36" class="rule_text">aat1_seq:</text><rect width="66" height="28" x="66" y="-14" class="symbol_rect" rx="1"/><text x="99" y="4" class="symbol_text">term1</text><rect width="46" height="28" x="90" y="58" class="symbol_rect" rx="1"/><text x="113" y="76" class="symbol_text">aa1</text><path d="M90 72 L66 72 M78 72 Q66 72 66 60 L66 36 Q66 24 78 24 L148 24 Q160 24 160 36 L160 60 Q160 72 148 72 L136 72 L160 72" class="path"/><rect width="66" height="28" x="220" y="58" class="symbol_rect" rx="1"/><text x="253" y="76" class="symbol_text">term1</text><rect width="16" height="28" x="220" y="102" class="terminal_rect" rx="28"/><path d="M184 72 L220 72 M184 72 Q196 72 196 84 M322 72 L286 72 M322 72 Q310 72 310 84" class="path"/><path d="M208 116 L220 116 M208 116 Q196 116 196 104 L196 84 M298 116 L236 116 M298 116 Q310 116 310 104 L310 84" class="path"/><path d="M160 72 L184 72" class="path"/><path d="M30 0 L66 0 M30 0 Q42 0 42 12 M358 0 L132 0 M358 0 Q346 0 346 12" class="path"/><path d="M54 72 L66 72 M54 72 Q42 72 42 60 L42 12 M334 72 L322 72 M334 72 Q346 72 346 60 L346 12" class="path"/><path d="M0 0 L30 0 M388 0 L358 0" class="path"/><path d="M0 -6 L0 6 M388 -6 L388 6" class="rule_path_edge"/></svg>