<svg xmlns="http://www.w3.org/2000/svg" width="244" height="132" version="1.1" viewBox="-8 -58 244 132"><defs><style type="text/css">.symbol_rect{fill:#ceffce;stroke:#000;stroke-width:2}.symbol_text{fill:#000;font-family:Verdana,Sans-serif;font-weight:700;font-style:italic;text-anchor:middle;font-size:14px}.path{fill:none;stroke:#000;stroke-width:2}.rule_text{fill:#000;font-family:Verdana,Sans-serif;font-weight:700;font-size:14px}.rule_path_edge{fill:none;stroke:#000;stroke-width:3}</style></defs><text x="0" y="-36" class="rule_text">aat13_seq:</text><rect width="96" height="28" x="66" y="-14" class="symbol_rect" rx="1"/><text x="114" y="4" class="symbol_text">aat3_seq</text><rect width="96" height="28" x="66" y="30" class="symbol_rect" rx="1"/><text x="114" y="48" class="symbol_text">aat1_seq</text><path d="M30 0 L66 0 M30 0 Q42 0 42 12 M198 0 L162 0 M198 0 Q186 0 186 12" class="path"/><path d="M54 44 L66 44 M54 44 Q42 44 42 32 L42 12 M174 44 L162 44 M174 44 Q186 44 186 32 L186 12" class="path"/><path d="M0 0 L30 0 M228 0 L198 0" class="path"/><path d="M0 -6 L0 6 M228 -6 L228 6" class="rule_path_edge"/></svg>