<svg xmlns="http://www.w3.org/2000/svg" width="294" height="132" version="1.1" viewBox="-8 -58 294 132"><defs><style type="text/css">.symbol_rect{fill:#ceffce;stroke:#000;stroke-width:2}.symbol_text{fill:#000;font-family:Verdana,Sans-serif;font-weight:700;font-style:italic;text-anchor:middle;font-size:14px}.path{fill:none;stroke:#000;stroke-width:2}.rule_text{fill:#000;font-family:Verdana,Sans-serif;font-weight:700;font-size:14px}.rule_path_edge{fill:none;stroke:#000;stroke-width:3}</style></defs><text x="0" y="-36" class="rule_text">def_p_pos:</text><rect width="76" height="28" x="66" y="-14" class="symbol_rect" rx="1"/><text x="104" y="4" class="symbol_text">term13</text><rect width="56" height="28" x="66" y="30" class="symbol_rect" rx="1"/><text x="94" y="48" class="symbol_text">aa13</text><path d="M30 0 L66 0 M30 0 Q42 0 42 12 M178 0 L142 0 M178 0 Q166 0 166 12" class="path"/><path d="M54 44 L66 44 M54 44 Q42 44 42 32 L42 12 M154 44 L122 44 M154 44 Q166 44 166 32 L166 12" class="path"/><rect width="46" height="28" x="202" y="-14" class="symbol_rect" rx="1"/><text x="225" y="4" class="symbol_text">num</text><path d="M178 0 L202 0" class="path"/><path d="M0 0 L30 0 M278 0 L248 0" class="path"/><path d="M0 -6 L0 6 M278 -6 L278 6" class="rule_path_edge"/></svg>