<svg xmlns="http://www.w3.org/2000/svg" width="354" height="132" version="1.1" viewBox="-8 -58 354 132"><defs><style type="text/css">.terminal_rect{fill:#ceffce;stroke:#000;stroke-width:2}.terminal_text{fill:#000;font-family:Verdana,Sans-serif;text-anchor:middle;font-size:14px}.symbol_rect{fill:#ceffce;stroke:#000;stroke-width:2}.symbol_text{fill:#000;font-family:Verdana,Sans-serif;font-weight:700;font-style:italic;text-anchor:middle;font-size:14px}.path{fill:none;stroke:#000;stroke-width:2}.rule_text{fill:#000;font-family:Verdana,Sans-serif;font-weight:700;font-size:14px}.rule_path_edge{fill:none;stroke:#000;stroke-width:3}</style></defs><text x="0" y="-36" class="rule_text">def_r_interval:</text><rect width="66" height="28" x="66" y="-14" class="symbol_rect" rx="1"/><text x="99" y="4" class="symbol_text">r_pos</text><rect width="26" height="28" x="156" y="-14" class="terminal_rect" rx="28"/><text x="169" y="4" class="terminal_text">_</text><rect width="66" height="28" x="206" y="-14" class="symbol_rect" rx="1"/><text x="239" y="4" class="symbol_text">r_pos</text><path d="M132 0 L156 0" class="path"/><path d="M182 0 L206 0" class="path"/><rect width="66" height="28" x="66" y="30" class="symbol_rect" rx="1"/><text x="99" y="48" class="symbol_text">r_pos</text><path d="M30 0 L66 0 M30 0 Q42 0 42 12 M308 0 L272 0 M308 0 Q296 0 296 12" class="path"/><path d="M54 44 L66 44 M54 44 Q42 44 42 32 L42 12 M284 44 L132 44 M284 44 Q296 44 296 32 L296 12" class="path"/><path d="M0 0 L30 0 M338 0 L308 0" class="path"/><path d="M0 -6 L0 6 M338 -6 L338 6" class="rule_path_edge"/></svg>