<svg xmlns="http://www.w3.org/2000/svg" width="264" height="440" version="1.1" viewBox="-8 -58 264 440"><defs><style type="text/css">.symbol_rect{fill:#ceffce;stroke:#000;stroke-width:2}.symbol_text{fill:#000;font-family:Verdana,Sans-serif;font-weight:700;font-style:italic;text-anchor:middle;font-size:14px}.path{fill:none;stroke:#000;stroke-width:2}.rule_text{fill:#000;font-family:Verdana,Sans-serif;font-weight:700;font-size:14px}.rule_path_edge{fill:none;stroke:#000;stroke-width:3}</style></defs><text x="0" y="-36" class="rule_text">dna_edit:</text><rect width="106" height="28" x="66" y="-14" class="symbol_rect" rx="1"/><text x="119" y="4" class="symbol_text">dna_ident</text><rect width="106" height="28" x="66" y="30" class="symbol_rect" rx="1"/><text x="119" y="48" class="symbol_text">dna_subst</text><rect width="116" height="28" x="66" y="74" class="symbol_rect" rx="1"/><text x="124" y="92" class="symbol_text">dna_delins</text><rect width="86" height="28" x="66" y="118" class="symbol_rect" rx="1"/><text x="109" y="136" class="symbol_text">dna_ins</text><rect width="86" height="28" x="66" y="162" class="symbol_rect" rx="1"/><text x="109" y="180" class="symbol_text">dna_del</text><rect width="86" height="28" x="66" y="206" class="symbol_rect" rx="1"/><text x="109" y="224" class="symbol_text">dna_dup</text><rect width="86" height="28" x="66" y="250" class="symbol_rect" rx="1"/><text x="109" y="268" class="symbol_text">dna_inv</text><rect width="86" height="28" x="66" y="294" class="symbol_rect" rx="1"/><text x="109" y="312" class="symbol_text">dna_con</text><rect width="96" height="28" x="66" y="338" class="symbol_rect" rx="1"/><text x="114" y="356" class="symbol_text">dna_copy</text><path d="M30 0 L66 0 M30 0 Q42 0 42 12 M218 0 L172 0 M218 0 Q206 0 206 12" class="path"/><path d="M54 44 L66 44 M54 44 Q42 44 42 32 L42 12 M194 44 L172 44 M194 44 Q206 44 206 32 L206 12" class="path"/><path d="M54 88 L66 88 M54 88 Q42 88 42 76 L42 32 M194 88 L182 88 M194 88 Q206 88 206 76 L206 32" class="path"/><path d="M54 132 L66 132 M54 132 Q42 132 42 120 L42 76 M194 132 L152 132 M194 132 Q206 132 206 120 L206 76" class="path"/><path d="M54 176 L66 176 M54 176 Q42 176 42 164 L42 120 M194 176 L152 176 M194 176 Q206 176 206 164 L206 120" class="path"/><path d="M54 220 L66 220 M54 220 Q42 220 42 208 L42 164 M194 220 L152 220 M194 220 Q206 220 206 208 L206 164" class="path"/><path d="M54 264 L66 264 M54 264 Q42 264 42 252 L42 208 M194 264 L152 264 M194 264 Q206 264 206 252 L206 208" class="path"/><path d="M54 308 L66 308 M54 308 Q42 308 42 296 L42 252 M194 308 L152 308 M194 308 Q206 308 206 296 L206 252" class="path"/><path d="M54 352 L66 352 M54 352 Q42 352 42 340 L42 296 M194 352 L162 352 M194 352 Q206 352 206 340 L206 296" class="path"/><path d="M0 0 L30 0 M248 0 L218 0" class="path"/><path d="M0 -6 L0 6 M248 -6 L248 6" class="rule_path_edge"/></svg>