<svg xmlns="http://www.w3.org/2000/svg" width="288" height="144" version="1.1" viewBox="-8 -86 288 144"><defs><style type="text/css">.terminal_rect{fill:#ceffce;stroke:#000;stroke-width:2}.terminal_text{fill:#000;font-family:Verdana,Sans-serif;text-anchor:middle;font-size:14px}.symbol_rect{fill:#ceffce;stroke:#000;stroke-width:2}.symbol_text{fill:#000;font-family:Verdana,Sans-serif;font-weight:700;font-style:italic;text-anchor:middle;font-size:14px}.path{fill:none;stroke:#000;stroke-width:2}.rule_text{fill:#000;font-family:Verdana,Sans-serif;font-weight:700;font-size:14px}.rule_path_edge{fill:none;stroke:#000;stroke-width:3}</style></defs><text x="0" y="-64" class="rule_text">dna_dup:</text><rect width="46" height="28" x="30" y="-14" class="terminal_rect" rx="28"/><text x="53" y="4" class="terminal_text">dup</text><rect width="46" height="28" x="148" y="-14" class="symbol_rect" rx="1"/><text x="171" y="4" class="symbol_text">dna</text><path d="M148 0 L124 0 M136 0 Q124 0 124 -12 L124 -36 Q124 -48 136 -48 L206 -48 Q218 -48 218 -36 L218 -12 Q218 0 206 0 L194 0 L218 0" class="path"/><path d="M148 0 L100 0 Q112 0 112 12 L112 24 Q112 36 124 36 L218 36 Q230 36 230 24 L230 12 Q230 0 242 0 L194 0 M100 0 L124 0 M218 0 L242 0" class="path"/><path d="M76 0 L100 0" class="path"/><path d="M0 0 L30 0 M272 0 L242 0" class="path"/><path d="M0 -6 L0 6 M272 -6 L272 6" class="rule_path_edge"/></svg>