<svg xmlns="http://www.w3.org/2000/svg" width="314" height="132" version="1.1" viewBox="-8 -58 314 132"><defs><style type="text/css">.terminal_rect{fill:#ceffce;stroke:#000;stroke-width:2}.terminal_text{fill:#000;font-family:Verdana,Sans-serif;text-anchor:middle;font-size:14px}.symbol_rect{fill:#ceffce;stroke:#000;stroke-width:2}.symbol_text{fill:#000;font-family:Verdana,Sans-serif;font-weight:700;font-style:italic;text-anchor:middle;font-size:14px}.path{fill:none;stroke:#000;stroke-width:2}.rule_text{fill:#000;font-family:Verdana,Sans-serif;font-weight:700;font-size:14px}.rule_path_edge{fill:none;stroke:#000;stroke-width:3}</style></defs><text x="0" y="-36" class="rule_text">ext:</text><rect width="46" height="28" x="30" y="-14" class="terminal_rect" rx="28"/><text x="53" y="4" class="terminal_text">ext</text><rect width="96" height="28" x="136" y="-14" class="symbol_rect" rx="1"/><text x="184" y="4" class="symbol_text">aa13_ext</text><rect width="16" height="28" x="136" y="30" class="terminal_rect" rx="28"/><path d="M100 0 L136 0 M100 0 Q112 0 112 12 M268 0 L232 0 M268 0 Q256 0 256 12" class="path"/><path d="M124 44 L136 44 M124 44 Q112 44 112 32 L112 12 M244 44 L152 44 M244 44 Q256 44 256 32 L256 12" class="path"/><path d="M76 0 L100 0" class="path"/><path d="M0 0 L30 0 M298 0 L268 0" class="path"/><path d="M0 -6 L0 6 M298 -6 L298 6" class="rule_path_edge"/></svg>