<svg xmlns="http://www.w3.org/2000/svg" width="294" height="132" version="1.1" viewBox="-8 -58 294 132"><defs><style type="text/css">.terminal_rect{fill:#ceffce;stroke:#000;stroke-width:2}.terminal_text{fill:#000;font-family:Verdana,Sans-serif;text-anchor:middle;font-size:14px}.symbol_rect{fill:#ceffce;stroke:#000;stroke-width:2}.symbol_text{fill:#000;font-family:Verdana,Sans-serif;font-weight:700;font-style:italic;text-anchor:middle;font-size:14px}.path{fill:none;stroke:#000;stroke-width:2}.rule_text{fill:#000;font-family:Verdana,Sans-serif;font-weight:700;font-size:14px}.rule_path_edge{fill:none;stroke:#000;stroke-width:3}</style></defs><text x="0" y="-36" class="rule_text">fs:</text><rect width="36" height="28" x="30" y="-14" class="terminal_rect" rx="28"/><text x="48" y="4" class="terminal_text">fs</text><rect width="86" height="28" x="126" y="-14" class="symbol_rect" rx="1"/><text x="169" y="4" class="symbol_text">aa13_fs</text><rect width="16" height="28" x="126" y="30" class="terminal_rect" rx="28"/><path d="M90 0 L126 0 M90 0 Q102 0 102 12 M248 0 L212 0 M248 0 Q236 0 236 12" class="path"/><path d="M114 44 L126 44 M114 44 Q102 44 102 32 L102 12 M224 44 L142 44 M224 44 Q236 44 236 32 L236 12" class="path"/><path d="M66 0 L90 0" class="path"/><path d="M0 0 L30 0 M278 0 L248 0" class="path"/><path d="M0 -6 L0 6 M278 -6 L278 6" class="rule_path_edge"/></svg>