<svg xmlns="http://www.w3.org/2000/svg" width="194" height="176" version="1.1" viewBox="-8 -58 194 176"><defs><style type="text/css">.terminal_rect{fill:#ceffce;stroke:#000;stroke-width:2}.terminal_text{fill:#000;font-family:Verdana,Sans-serif;text-anchor:middle;font-size:14px}.symbol_rect{fill:#ceffce;stroke:#000;stroke-width:2}.symbol_text{fill:#000;font-family:Verdana,Sans-serif;font-weight:700;font-style:italic;text-anchor:middle;font-size:14px}.path{fill:none;stroke:#000;stroke-width:2}.rule_text{fill:#000;font-family:Verdana,Sans-serif;font-weight:700;font-size:14px}.rule_path_edge{fill:none;stroke:#000;stroke-width:3}</style></defs><text x="0" y="-36" class="rule_text">fsext_offset:</text><rect width="46" height="28" x="66" y="-14" class="symbol_rect" rx="1"/><text x="89" y="4" class="symbol_text">num</text><rect width="26" height="28" x="66" y="30" class="terminal_rect" rx="28"/><text x="79" y="48" class="terminal_text">?</text><rect width="16" height="28" x="66" y="74" class="terminal_rect" rx="28"/><path d="M30 0 L66 0 M30 0 Q42 0 42 12 M148 0 L112 0 M148 0 Q136 0 136 12" class="path"/><path d="M54 44 L66 44 M54 44 Q42 44 42 32 L42 12 M124 44 L92 44 M124 44 Q136 44 136 32 L136 12" class="path"/><path d="M54 88 L66 88 M54 88 Q42 88 42 76 L42 32 M124 88 L82 88 M124 88 Q136 88 136 76 L136 32" class="path"/><path d="M0 0 L30 0 M178 0 L148 0" class="path"/><path d="M0 -6 L0 6 M178 -6 L178 6" class="rule_path_edge"/></svg>