<svg xmlns="http://www.w3.org/2000/svg" width="314" height="308" version="1.1" viewBox="-8 -58 314 308"><defs><style type="text/css">.symbol_rect{fill:#ceffce;stroke:#000;stroke-width:2}.symbol_text{fill:#000;font-family:Verdana,Sans-serif;font-weight:700;font-style:italic;text-anchor:middle;font-size:14px}.path{fill:none;stroke:#000;stroke-width:2}.rule_text{fill:#000;font-family:Verdana,Sans-serif;font-weight:700;font-size:14px}.rule_path_edge{fill:none;stroke:#000;stroke-width:3}</style></defs><text x="0" y="-36" class="rule_text">hgvs_position:</text><rect width="166" height="28" x="66" y="-14" class="symbol_rect" rx="1"/><text x="149" y="4" class="symbol_text">g_hgvs_position</text><rect width="166" height="28" x="66" y="30" class="symbol_rect" rx="1"/><text x="149" y="48" class="symbol_text">m_hgvs_position</text><rect width="166" height="28" x="66" y="74" class="symbol_rect" rx="1"/><text x="149" y="92" class="symbol_text">c_hgvs_position</text><rect width="166" height="28" x="66" y="118" class="symbol_rect" rx="1"/><text x="149" y="136" class="symbol_text">n_hgvs_position</text><rect width="166" height="28" x="66" y="162" class="symbol_rect" rx="1"/><text x="149" y="180" class="symbol_text">r_hgvs_position</text><rect width="166" height="28" x="66" y="206" class="symbol_rect" rx="1"/><text x="149" y="224" class="symbol_text">p_hgvs_position</text><path d="M30 0 L66 0 M30 0 Q42 0 42 12 M268 0 L232 0 M268 0 Q256 0 256 12" class="path"/><path d="M54 44 L66 44 M54 44 Q42 44 42 32 L42 12 M244 44 L232 44 M244 44 Q256 44 256 32 L256 12" class="path"/><path d="M54 88 L66 88 M54 88 Q42 88 42 76 L42 32 M244 88 L232 88 M244 88 Q256 88 256 76 L256 32" class="path"/><path d="M54 132 L66 132 M54 132 Q42 132 42 120 L42 76 M244 132 L232 132 M244 132 Q256 132 256 120 L256 76" class="path"/><path d="M54 176 L66 176 M54 176 Q42 176 42 164 L42 120 M244 176 L232 176 M244 176 Q256 176 256 164 L256 120" class="path"/><path d="M54 220 L66 220 M54 220 Q42 220 42 208 L42 164 M244 220 L232 220 M244 220 Q256 220 256 208 L256 164" class="path"/><path d="M0 0 L30 0 M298 0 L268 0" class="path"/><path d="M0 -6 L0 6 M298 -6 L298 6" class="rule_path_edge"/></svg>