<svg xmlns="http://www.w3.org/2000/svg" width="254" height="308" version="1.1" viewBox="-8 -58 254 308"><defs><style type="text/css">.symbol_rect{fill:#ceffce;stroke:#000;stroke-width:2}.symbol_text{fill:#000;font-family:Verdana,Sans-serif;font-weight:700;font-style:italic;text-anchor:middle;font-size:14px}.path{fill:none;stroke:#000;stroke-width:2}.rule_text{fill:#000;font-family:Verdana,Sans-serif;font-weight:700;font-size:14px}.rule_path_edge{fill:none;stroke:#000;stroke-width:3}</style></defs><text x="0" y="-36" class="rule_text">hgvs_variant:</text><rect width="106" height="28" x="66" y="-14" class="symbol_rect" rx="1"/><text x="119" y="4" class="symbol_text">g_variant</text><rect width="106" height="28" x="66" y="30" class="symbol_rect" rx="1"/><text x="119" y="48" class="symbol_text">m_variant</text><rect width="106" height="28" x="66" y="74" class="symbol_rect" rx="1"/><text x="119" y="92" class="symbol_text">c_variant</text><rect width="106" height="28" x="66" y="118" class="symbol_rect" rx="1"/><text x="119" y="136" class="symbol_text">n_variant</text><rect width="106" height="28" x="66" y="162" class="symbol_rect" rx="1"/><text x="119" y="180" class="symbol_text">r_variant</text><rect width="106" height="28" x="66" y="206" class="symbol_rect" rx="1"/><text x="119" y="224" class="symbol_text">p_variant</text><path d="M30 0 L66 0 M30 0 Q42 0 42 12 M208 0 L172 0 M208 0 Q196 0 196 12" class="path"/><path d="M54 44 L66 44 M54 44 Q42 44 42 32 L42 12 M184 44 L172 44 M184 44 Q196 44 196 32 L196 12" class="path"/><path d="M54 88 L66 88 M54 88 Q42 88 42 76 L42 32 M184 88 L172 88 M184 88 Q196 88 196 76 L196 32" class="path"/><path d="M54 132 L66 132 M54 132 Q42 132 42 120 L42 76 M184 132 L172 132 M184 132 Q196 132 196 120 L196 76" class="path"/><path d="M54 176 L66 176 M54 176 Q42 176 42 164 L42 120 M184 176 L172 176 M184 176 Q196 176 196 164 L196 120" class="path"/><path d="M54 220 L66 220 M54 220 Q42 220 42 208 L42 164 M184 220 L172 220 M184 220 Q196 220 196 208 L196 164" class="path"/><path d="M0 0 L30 0 M238 0 L208 0" class="path"/><path d="M0 -6 L0 6 M238 -6 L238 6" class="rule_path_edge"/></svg>