<svg xmlns="http://www.w3.org/2000/svg" width="404" height="132" version="1.1" viewBox="-8 -58 404 132"><defs><style type="text/css">.terminal_rect{fill:#ceffce;stroke:#000;stroke-width:2}.terminal_text{fill:#000;font-family:Verdana,Sans-serif;text-anchor:middle;font-size:14px}.symbol_rect{fill:#ceffce;stroke:#000;stroke-width:2}.symbol_text{fill:#000;font-family:Verdana,Sans-serif;font-weight:700;font-style:italic;text-anchor:middle;font-size:14px}.path{fill:none;stroke:#000;stroke-width:2}.rule_text{fill:#000;font-family:Verdana,Sans-serif;font-weight:700;font-size:14px}.rule_path_edge{fill:none;stroke:#000;stroke-width:3}</style></defs><text x="0" y="-36" class="rule_text">p_interval:</text><rect width="156" height="28" x="66" y="-14" class="symbol_rect" rx="1"/><text x="144" y="4" class="symbol_text">def_p_interval</text><rect width="26" height="28" x="66" y="30" class="terminal_rect" rx="28"/><text x="79" y="48" class="terminal_text">(</text><rect width="156" height="28" x="116" y="30" class="symbol_rect" rx="1"/><text x="194" y="48" class="symbol_text">def_p_interval</text><rect width="26" height="28" x="296" y="30" class="terminal_rect" rx="28"/><text x="309" y="48" class="terminal_text">)</text><path d="M92 44 L116 44" class="path"/><path d="M272 44 L296 44" class="path"/><path d="M30 0 L66 0 M30 0 Q42 0 42 12 M358 0 L222 0 M358 0 Q346 0 346 12" class="path"/><path d="M54 44 L66 44 M54 44 Q42 44 42 32 L42 12 M334 44 L322 44 M334 44 Q346 44 346 32 L346 12" class="path"/><path d="M0 0 L30 0 M388 0 L358 0" class="path"/><path d="M0 -6 L0 6 M388 -6 L388 6" class="rule_path_edge"/></svg>