<svg xmlns="http://www.w3.org/2000/svg" width="274" height="264" version="1.1" viewBox="-8 -58 274 264"><defs><style type="text/css">.terminal_rect{fill:#ceffce;stroke:#000;stroke-width:2}.terminal_text{fill:#000;font-family:Verdana,Sans-serif;text-anchor:middle;font-size:14px}.path{fill:none;stroke:#000;stroke-width:2}.rule_text{fill:#000;font-family:Verdana,Sans-serif;font-weight:700;font-size:14px}.rule_path_edge{fill:none;stroke:#000;stroke-width:3}</style></defs><text x="0" y="-36" class="rule_text">p_posedit_special:</text><rect width="26" height="28" x="66" y="-14" class="terminal_rect" rx="28"/><text x="79" y="4" class="terminal_text">=</text><rect width="26" height="28" x="66" y="30" class="terminal_rect" rx="28"/><text x="79" y="48" class="terminal_text">(</text><rect width="26" height="28" x="116" y="30" class="terminal_rect" rx="28"/><text x="129" y="48" class="terminal_text">=</text><rect width="26" height="28" x="166" y="30" class="terminal_rect" rx="28"/><text x="179" y="48" class="terminal_text">)</text><path d="M92 44 L116 44" class="path"/><path d="M142 44 L166 44" class="path"/><rect width="26" height="28" x="66" y="74" class="terminal_rect" rx="28"/><text x="79" y="92" class="terminal_text">0</text><rect width="26" height="28" x="116" y="74" class="terminal_rect" rx="28"/><text x="129" y="92" class="terminal_text">?</text><path d="M92 88 L116 88" class="path"/><rect width="26" height="28" x="66" y="118" class="terminal_rect" rx="28"/><text x="79" y="136" class="terminal_text">0</text><rect width="26" height="28" x="66" y="162" class="terminal_rect" rx="28"/><text x="79" y="180" class="terminal_text">?</text><path d="M30 0 L66 0 M30 0 Q42 0 42 12 M228 0 L92 0 M228 0 Q216 0 216 12" class="path"/><path d="M54 44 L66 44 M54 44 Q42 44 42 32 L42 12 M204 44 L192 44 M204 44 Q216 44 216 32 L216 12" class="path"/><path d="M54 88 L66 88 M54 88 Q42 88 42 76 L42 32 M204 88 L142 88 M204 88 Q216 88 216 76 L216 32" class="path"/><path d="M54 132 L66 132 M54 132 Q42 132 42 120 L42 76 M204 132 L92 132 M204 132 Q216 132 216 120 L216 76" class="path"/><path d="M54 176 L66 176 M54 176 Q42 176 42 164 L42 120 M204 176 L92 176 M204 176 Q216 176 216 164 L216 120" class="path"/><path d="M0 0 L30 0 M258 0 L228 0" class="path"/><path d="M0 -6 L0 6 M258 -6 L258 6" class="rule_path_edge"/></svg>