<svg xmlns="http://www.w3.org/2000/svg" width="174" height="132" version="1.1" viewBox="-8 -58 174 132"><defs><style type="text/css">.terminal_rect{fill:#ceffce;stroke:#000;stroke-width:2}.terminal_text{fill:#000;font-family:Verdana,Sans-serif;text-anchor:middle;font-size:14px}.path{fill:none;stroke:#000;stroke-width:2}.rule_text{fill:#000;font-family:Verdana,Sans-serif;font-weight:700;font-size:14px}.rule_path_edge{fill:none;stroke:#000;stroke-width:3}</style></defs><text x="0" y="-36" class="rule_text">pm:</text><rect width="26" height="28" x="66" y="-14" class="terminal_rect" rx="28"/><text x="79" y="4" class="terminal_text">-</text><rect width="26" height="28" x="66" y="30" class="terminal_rect" rx="28"/><text x="79" y="48" class="terminal_text">+</text><path d="M30 0 L66 0 M30 0 Q42 0 42 12 M128 0 L92 0 M128 0 Q116 0 116 12" class="path"/><path d="M54 44 L66 44 M54 44 Q42 44 42 32 L42 12 M104 44 L92 44 M104 44 Q116 44 116 32 L116 12" class="path"/><path d="M0 0 L30 0 M158 0 L128 0" class="path"/><path d="M0 -6 L0 6 M158 -6 L158 6" class="rule_path_edge"/></svg>