<svg xmlns="http://www.w3.org/2000/svg" width="274" height="132" version="1.1" viewBox="-8 -58 274 132"><defs><style type="text/css">.symbol_rect,.terminal_rect{fill:#ceffce;stroke:#000;stroke-width:2}.symbol_text{fill:#000;font-family:Verdana,Sans-serif;font-weight:700;font-style:italic;text-anchor:middle;font-size:14px}.path{fill:none;stroke:#000;stroke-width:2}.rule_text{fill:#000;font-family:Verdana,Sans-serif;font-weight:700;font-size:14px}.rule_path_edge{fill:none;stroke:#000;stroke-width:3}</style></defs><text x="0" y="-36" class="rule_text">pro_fs:</text><rect width="66" height="28" x="66" y="-14" class="symbol_rect" rx="1"/><text x="99" y="4" class="symbol_text">aat13</text><rect width="16" height="28" x="66" y="30" class="terminal_rect" rx="28"/><path d="M30 0 L66 0 M30 0 Q42 0 42 12 M168 0 L132 0 M168 0 Q156 0 156 12" class="path"/><path d="M54 44 L66 44 M54 44 Q42 44 42 32 L42 12 M144 44 L82 44 M144 44 Q156 44 156 32 L156 12" class="path"/><rect width="36" height="28" x="192" y="-14" class="symbol_rect" rx="1"/><text x="210" y="4" class="symbol_text">fs</text><path d="M168 0 L192 0" class="path"/><path d="M0 0 L30 0 M258 0 L228 0" class="path"/><path d="M0 -6 L0 6 M258 -6 L258 6" class="rule_path_edge"/></svg>