<svg xmlns="http://www.w3.org/2000/svg" width="422" height="88" version="1.1" viewBox="-8 -58 422 88"><defs><style type="text/css">.terminal_rect{fill:#ceffce;stroke:#000;stroke-width:2}.terminal_text{fill:#000;font-family:Verdana,Sans-serif;text-anchor:middle;font-size:14px}.symbol_rect{fill:#ceffce;stroke:#000;stroke-width:2}.symbol_text{fill:#000;font-family:Verdana,Sans-serif;font-weight:700;font-style:italic;text-anchor:middle;font-size:14px}.path{fill:none;stroke:#000;stroke-width:2}.rule_text{fill:#000;font-family:Verdana,Sans-serif;font-weight:700;font-size:14px}.rule_path_edge{fill:none;stroke:#000;stroke-width:3}</style></defs><text x="0" y="-36" class="rule_text">r_hgvs_position:</text><rect width="56" height="28" x="30" y="-14" class="symbol_rect" rx="1"/><text x="58" y="4" class="symbol_text">accn</text><rect width="26" height="28" x="110" y="-14" class="terminal_rect" rx="28"/><text x="123" y="4" class="terminal_text">:</text><rect width="26" height="28" x="160" y="-14" class="terminal_rect" rx="28"/><text x="173" y="4" class="terminal_text">r</text><rect width="26" height="28" x="210" y="-14" class="terminal_rect" rx="28"/><text x="223" y="4" class="terminal_text">.</text><rect width="116" height="28" x="260" y="-14" class="symbol_rect" rx="1"/><text x="318" y="4" class="symbol_text">r_interval</text><path d="M86 0 L110 0" class="path"/><path d="M136 0 L160 0" class="path"/><path d="M186 0 L210 0" class="path"/><path d="M236 0 L260 0" class="path"/><path d="M0 0 L30 0 M406 0 L376 0" class="path"/><path d="M0 -6 L0 6 M406 -6 L406 6" class="rule_path_edge"/></svg>