<svg xmlns="http://www.w3.org/2000/svg" width="484" height="132" version="1.1" viewBox="-8 -58 484 132"><defs><style type="text/css">.terminal_rect{fill:#ceffce;stroke:#000;stroke-width:2}.terminal_text{fill:#000;font-family:Verdana,Sans-serif;text-anchor:middle;font-size:14px}.symbol_rect{fill:#ceffce;stroke:#000;stroke-width:2}.symbol_text{fill:#000;font-family:Verdana,Sans-serif;font-weight:700;font-style:italic;text-anchor:middle;font-size:14px}.path{fill:none;stroke:#000;stroke-width:2}.rule_text{fill:#000;font-family:Verdana,Sans-serif;font-weight:700;font-size:14px}.rule_path_edge{fill:none;stroke:#000;stroke-width:3}</style></defs><text x="0" y="-36" class="rule_text">r_posedit:</text><rect width="116" height="28" x="66" y="-14" class="symbol_rect" rx="1"/><text x="124" y="4" class="symbol_text">r_interval</text><rect width="96" height="28" x="206" y="-14" class="symbol_rect" rx="1"/><text x="254" y="4" class="symbol_text">rna_edit</text><path d="M182 0 L206 0" class="path"/><rect width="26" height="28" x="66" y="30" class="terminal_rect" rx="28"/><text x="79" y="48" class="terminal_text">(</text><rect width="116" height="28" x="116" y="30" class="symbol_rect" rx="1"/><text x="174" y="48" class="symbol_text">r_interval</text><rect width="96" height="28" x="256" y="30" class="symbol_rect" rx="1"/><text x="304" y="48" class="symbol_text">rna_edit</text><rect width="26" height="28" x="376" y="30" class="terminal_rect" rx="28"/><text x="389" y="48" class="terminal_text">)</text><path d="M92 44 L116 44" class="path"/><path d="M232 44 L256 44" class="path"/><path d="M352 44 L376 44" class="path"/><path d="M30 0 L66 0 M30 0 Q42 0 42 12 M438 0 L302 0 M438 0 Q426 0 426 12" class="path"/><path d="M54 44 L66 44 M54 44 Q42 44 42 32 L42 12 M414 44 L402 44 M414 44 Q426 44 426 32 L426 12" class="path"/><path d="M0 0 L30 0 M468 0 L438 0" class="path"/><path d="M0 -6 L0 6 M468 -6 L468 6" class="rule_path_edge"/></svg>