<svg xmlns="http://www.w3.org/2000/svg" width="240" height="116" version="1.1" viewBox="-8 -86 240 116"><defs><style type="text/css">.terminal_rect{fill:#ceffce;stroke:#000;stroke-width:2}.terminal_text{fill:#000;font-family:Verdana,Sans-serif;text-anchor:middle;font-size:14px}.symbol_rect{fill:#ceffce;stroke:#000;stroke-width:2}.symbol_text{fill:#000;font-family:Verdana,Sans-serif;font-weight:700;font-style:italic;text-anchor:middle;font-size:14px}.path{fill:none;stroke:#000;stroke-width:2}.rule_text{fill:#000;font-family:Verdana,Sans-serif;font-weight:700;font-size:14px}.rule_path_edge{fill:none;stroke:#000;stroke-width:3}</style></defs><text x="0" y="-64" class="rule_text">rna_ins:</text><rect width="46" height="28" x="30" y="-14" class="terminal_rect" rx="28"/><text x="53" y="4" class="terminal_text">ins</text><rect width="46" height="28" x="124" y="-14" class="symbol_rect" rx="1"/><text x="147" y="4" class="symbol_text">rna</text><path d="M124 0 L100 0 M112 0 Q100 0 100 -12 L100 -36 Q100 -48 112 -48 L182 -48 Q194 -48 194 -36 L194 -12 Q194 0 182 0 L170 0 L194 0" class="path"/><path d="M76 0 L100 0" class="path"/><path d="M0 0 L30 0 M224 0 L194 0" class="path"/><path d="M0 -6 L0 6 M224 -6 L224 6" class="rule_path_edge"/></svg>