<svg xmlns="http://www.w3.org/2000/svg" width="548" height="216" version="1.1" viewBox="-8 -86 548 216"><defs><style type="text/css">.terminal_rect{fill:#ceffce;stroke:#000;stroke-width:2}.terminal_text{fill:#000;font-family:Verdana,Sans-serif;text-anchor:middle;font-size:14px}.symbol_rect{fill:#ceffce;stroke:#000;stroke-width:2}.symbol_text{fill:#000;font-family:Verdana,Sans-serif;font-weight:700;font-style:italic;text-anchor:middle;font-size:14px}.path{fill:none;stroke:#000;stroke-width:2}.rule_text{fill:#000;font-family:Verdana,Sans-serif;font-weight:700;font-size:14px}.rule_path_edge{fill:none;stroke:#000;stroke-width:3}</style></defs><text x="0" y="-64" class="rule_text">rna_delins:</text><rect width="46" height="28" x="30" y="-14" class="terminal_rect" rx="28"/><text x="53" y="4" class="terminal_text">del</text><rect width="46" height="28" x="136" y="-14" class="symbol_rect" rx="1"/><text x="159" y="4" class="symbol_text">num</text><rect width="46" height="28" x="184" y="58" class="symbol_rect" rx="1"/><text x="207" y="76" class="symbol_text">rna</text><path d="M184 72 L160 72 M172 72 Q160 72 160 60 L160 36 Q160 24 172 24 L242 24 Q254 24 254 36 L254 60 Q254 72 242 72 L230 72 L254 72" class="path"/><path d="M184 72 L136 72 Q148 72 148 84 L148 96 Q148 108 160 108 L254 108 Q266 108 266 96 L266 84 Q266 72 278 72 L230 72 M136 72 L160 72 M254 72 L278 72" class="path"/><path d="M100 0 L136 0 M100 0 Q112 0 112 12 M314 0 L182 0 M314 0 Q302 0 302 12" class="path"/><path d="M124 72 L136 72 M124 72 Q112 72 112 60 L112 12 M290 72 L278 72 M290 72 Q302 72 302 60 L302 12" class="path"/><rect width="46" height="28" x="338" y="-14" class="terminal_rect" rx="28"/><text x="361" y="4" class="terminal_text">ins</text><rect width="46" height="28" x="432" y="-14" class="symbol_rect" rx="1"/><text x="455" y="4" class="symbol_text">rna</text><path d="M432 0 L408 0 M420 0 Q408 0 408 -12 L408 -36 Q408 -48 420 -48 L490 -48 Q502 -48 502 -36 L502 -12 Q502 0 490 0 L478 0 L502 0" class="path"/><path d="M76 0 L100 0" class="path"/><path d="M314 0 L338 0" class="path"/><path d="M384 0 L408 0" class="path"/><path d="M0 0 L30 0 M532 0 L502 0" class="path"/><path d="M0 -6 L0 6 M532 -6 L532 6" class="rule_path_edge"/></svg>