<svg xmlns="http://www.w3.org/2000/svg" width="268" height="144" version="1.1" viewBox="-8 -86 268 144"><defs><style type="text/css">.terminal_rect{fill:#ceffce;stroke:#000;stroke-width:2}.terminal_text{fill:#000;font-family:Verdana,Sans-serif;text-anchor:middle;font-size:14px}.symbol_rect{fill:#ceffce;stroke:#000;stroke-width:2}.symbol_text{fill:#000;font-family:Verdana,Sans-serif;font-weight:700;font-style:italic;text-anchor:middle;font-size:14px}.path{fill:none;stroke:#000;stroke-width:2}.rule_text{fill:#000;font-family:Verdana,Sans-serif;font-weight:700;font-size:14px}.rule_path_edge{fill:none;stroke:#000;stroke-width:3}</style></defs><text x="0" y="-64" class="rule_text">rna_ident:</text><rect width="46" height="28" x="78" y="-14" class="symbol_rect" rx="1"/><text x="101" y="4" class="symbol_text">rna</text><path d="M78 0 L54 0 M66 0 Q54 0 54 -12 L54 -36 Q54 -48 66 -48 L136 -48 Q148 -48 148 -36 L148 -12 Q148 0 136 0 L124 0 L148 0" class="path"/><path d="M78 0 L30 0 Q42 0 42 12 L42 24 Q42 36 54 36 L148 36 Q160 36 160 24 L160 12 Q160 0 172 0 L124 0 M30 0 L54 0 M148 0 L172 0" class="path"/><rect width="26" height="28" x="196" y="-14" class="terminal_rect" rx="28"/><text x="209" y="4" class="terminal_text">=</text><path d="M172 0 L196 0" class="path"/><path d="M0 0 L30 0 M252 0 L222 0" class="path"/><path d="M0 -6 L0 6 M252 -6 L252 6" class="rule_path_edge"/></svg>