<svg xmlns="http://www.w3.org/2000/svg" width="254" height="132" version="1.1" viewBox="-8 -58 254 132"><defs><style type="text/css">.symbol_rect,.terminal_rect{fill:#ceffce;stroke:#000;stroke-width:2}.symbol_text{fill:#000;font-family:Verdana,Sans-serif;font-weight:700;font-style:italic;text-anchor:middle;font-size:14px}.path{fill:none;stroke:#000;stroke-width:2}.rule_text{fill:#000;font-family:Verdana,Sans-serif;font-weight:700;font-size:14px}.rule_path_edge{fill:none;stroke:#000;stroke-width:3}</style></defs><text x="0" y="-36" class="rule_text">snum:</text><rect width="36" height="28" x="66" y="-14" class="symbol_rect" rx="1"/><text x="84" y="4" class="symbol_text">pm</text><rect width="16" height="28" x="66" y="30" class="terminal_rect" rx="28"/><path d="M30 0 L66 0 M30 0 Q42 0 42 12 M138 0 L102 0 M138 0 Q126 0 126 12" class="path"/><path d="M54 44 L66 44 M54 44 Q42 44 42 32 L42 12 M114 44 L82 44 M114 44 Q126 44 126 32 L126 12" class="path"/><rect width="46" height="28" x="162" y="-14" class="symbol_rect" rx="1"/><text x="185" y="4" class="symbol_text">num</text><path d="M138 0 L162 0" class="path"/><path d="M0 0 L30 0 M238 0 L208 0" class="path"/><path d="M0 -6 L0 6 M238 -6 L238 6" class="rule_path_edge"/></svg>